<svg xmlns="http://www.w3.org/2000/svg" fill-rule="evenodd" stroke-miterlimit="1.41" viewBox="0 0 2014 2136" clip-rule="evenodd" stroke-linejoin="round">
  <path fill="#333" fill-rule="nonzero" d="M1588.58 958.8c-39.46 0-71.46-32.2-71.46-71.68 0-39.74 32-71.9 71.46-71.9 39.5 0 71.47 32.16 71.47 71.9 0 39.5-31.98 71.67-71.47 71.67zm-153.04-140.17c-39.45 0-71.42-32.06-71.42-71.7 0-39.7 31.97-71.86 71.42-71.86 39.48 0 71.4 32.16 71.4 71.85 0 39.65-31.92 71.7-71.4 71.7zm0 293.42c-39.45 0-71.42-32.07-71.42-71.77 0-39.65 31.97-71.86 71.42-71.86 39.48 0 71.4 32.2 71.4 71.86 0 39.7-31.92 71.77-71.4 71.77zM1288.12 958.8c-39.46 0-71.4-32.2-71.4-71.68 0-39.74 31.94-71.9 71.4-71.9 39.46 0 71.48 32.16 71.48 71.9 0 39.5-32.02 71.67-71.48 71.67zm-564.46 7.08h-75.8V1042c0 37.3-28.85 67.46-64.55 67.46-35.5 0-64.4-30.17-64.4-67.45v-76.1h-75.8c-37.1 0-67.1-29.02-67.1-64.8 0-35.83 30-64.86 67.07-64.86h75.84v-76.18c0-37.26 28.87-67.38 64.4-67.38 35.7 0 64.58 30.12 64.58 67.38v76.2h75.8c37.05 0 67.1 29.02 67.1 64.87 0 35.73-30.05 64.78-67.1 64.78zM2011.72.18s-140.17-14.16-533 213.52c0 0-281.05-27.83-481.42-27.83-200.36 0-481.38 27.83-481.38 27.83C123.05-13.98 2.2.17 2.2.17c-17.86 161.3 79.18 602.7 79.18 602.7-232.1 740.13 267.88 1008.5 330.42 989.54 62.45-19 60.7-37.7 89.24-38.3 148.53-2.7 184.5 400.67 282.72 495.5 94.95 91.78 206.4 86 213.54 85.4 7.22.6 118.57 6.38 213.57-85.4 98.25-94.83 134.13-498.2 282.72-495.5 28.52.6 26.72 19.3 89.22 38.3 62.47 19 562.48-249.4 330.35-989.5 0 0 116.4-441.4 98.5-602.7z"/>
</svg>
