<svg viewBox="0 0 47 45" xmlns="http://www.w3.org/2000/svg" fill-rule="evenodd" clip-rule="evenodd" stroke-linejoin="round" stroke-miterlimit="1.414"><path d="M31.334 44.856H15.6l-.533-6.408h-3.733l.533 6.408h-7.6L0 17.088 10.667 0h25.6l10.667 17.088-4.267 27.768h-7.6l.533-6.408h-3.733l-.533 6.408zm-14.4-23.966c.59 0 1.066 1.778 1.066 3.973 0 2.194-.477 3.973-1.066 3.973-.59 0-1.067-1.78-1.067-3.973 0-2.195.478-3.973 1.067-3.973zm13.466-.33c.59 0 1.067 1.777 1.067 3.97 0 2.196-.478 3.974-1.067 3.974-.59 0-1.066-1.778-1.066-3.973 0-2.193.477-3.97 1.066-3.97zM19.657 8.543H12.8l-4.266 8.545 2.133 17.088h25.6L38.4 17.088l-4.266-8.545h-6.857l.457 3.205H19.2l.457-3.205z" fill="#32383D"/></svg>